<svg width="24" height="24" viewBox="0 0 24 24" fill="none" xmlns="http://www.w3.org/2000/svg">
<path fill-rule="evenodd" clip-rule="evenodd" d="M12.0001 3.75C9.10063 3.75 6.75013 6.1005 6.75013 9C6.75013 11.8995 9.10063 14.25 12.0001 14.25C14.8996 14.25 17.2501 11.8995 17.2501 9C17.2501 6.1005 14.8996 3.75 12.0001 3.75ZM5.25013 9C5.25013 5.27208 8.2722 2.25 12.0001 2.25C15.7281 2.25 18.7501 5.27208 18.7501 9C18.7501 12.7279 15.7281 15.75 12.0001 15.75C8.2722 15.75 5.25013 12.7279 5.25013 9Z" fill="#8D95AF"/>
<path fill-rule="evenodd" clip-rule="evenodd" d="M12.0001 15.7491C10.2885 15.7491 8.60702 16.1997 7.12474 17.0556C5.64246 17.9114 4.41161 19.1425 3.55593 20.6249C3.34886 20.9836 2.89017 21.1065 2.53144 20.8995C2.1727 20.6924 2.04975 20.2337 2.25682 19.875C3.24415 18.1645 4.66436 16.7441 6.37468 15.7566C8.085 14.769 10.0252 14.2491 12.0001 14.2491C13.9751 14.2491 15.9153 14.769 17.6256 15.7566C19.3359 16.7441 20.7561 18.1645 21.7434 19.875C21.9505 20.2337 21.8276 20.6924 21.4688 20.8995C21.1101 21.1065 20.6514 20.9836 20.4443 20.6249C19.5886 19.1425 18.3578 17.9114 16.8755 17.0556C15.3932 16.1997 13.7118 15.7491 12.0001 15.7491Z" fill="#8D95AF"/>
</svg>
